<svg width="68" height="51" viewBox="0 0 68 51" fill="none" xmlns="http://www.w3.org/2000/svg">
<path d="M34.2598 0.76886C34.1624 0.76886 34.0974 0.76886 34 0.76886C33.9026 0.76886 33.8376 0.76886 33.7402 0.76886C15.1328 0.76886 0 15.3626 0 33.2704C0 39.5157 1.94842 45.1875 5.1958 50.0628C5.39064 50.2539 5.8128 50.6682 6.20249 50.4451C6.62462 50.1902 6.29993 49.3617 6.17002 49.075C3.76695 44.7415 2.43553 39.8025 2.43553 34.5768C2.43553 17.7206 16.3668 3.98714 33.5129 3.85968C33.6753 3.85968 33.8376 3.85968 34 3.85968C34.1624 3.85968 34.3247 3.85968 34.4871 3.85968C51.6657 3.98714 65.5644 17.7206 65.5644 34.5768C65.5644 39.7706 64.2328 44.6777 61.8948 48.9794H61.9598C61.9598 48.9794 61.3431 50.1584 61.8623 50.4451C62.155 50.6044 62.4796 50.4133 62.7066 50.2221C66.0191 45.315 68 39.5794 68 33.2704C68 15.3626 52.8672 0.76886 34.2598 0.76886Z" fill="#6A301A"/>
<path fill-rule="evenodd" clip-rule="evenodd" d="M46.5668 50.1907L47.2487 47.9602L44.9756 44.3277L35.3634 44.2958L35.2984 44.3277C33.5449 45.3792 33.285 47.3229 34.4541 50.0632L27.3424 50.0313C27.3424 49.9995 27.5372 49.5215 27.5372 49.5215H26.0759L26.563 47.6416L25.1991 43.4673H24.16L24.095 43.4992C23.7378 43.6904 23.3481 43.8816 22.9584 44.0409C22.1466 44.3914 21.3023 44.7738 20.8151 45.3155L20.7827 45.3473L20.7502 45.4111C20.4255 46.3351 20.1007 47.2273 19.9383 48.1195L19.9059 48.2151L20.7502 49.8402L14.6776 49.7764L16.8209 43.531L18.4445 41.4918C18.9641 40.3128 19.0291 39.6436 19.1265 38.7833C19.159 38.5284 19.1915 38.2097 19.2239 37.8911L19.2564 37.5406L17.0807 37.6362L17.0482 37.8593C16.8209 38.9108 16.2688 39.5799 15.3271 39.9941C14.0931 40.6314 13.3137 41.7148 12.8266 42.7026C11.8524 39.6755 12.4369 38.5602 12.7617 37.923C14.5477 35.6287 15.6843 35.5969 16.8858 35.5969C17.6003 35.5969 18.3796 35.5969 19.2564 35.0871C19.8734 34.7365 21.075 33.8444 21.6595 33.3664C23.2831 32.761 24.3873 31.0084 25.6862 28.9691C27.0825 26.7386 28.7063 24.1895 31.4665 22.6282L32.0835 22.2777L31.4016 22.0864C29.3558 21.5129 28.3166 21.035 27.797 20.3977C28.3491 19.7285 28.966 19.1868 29.713 18.7726L30.0377 18.6133L29.8104 18.3265C28.9986 17.3387 28.7387 16.4147 28.9336 15.4906C29.2583 14.1841 30.6547 12.8777 33.0577 11.635C31.7263 13.3557 31.1743 15.2675 31.6938 16.5421C31.9861 17.275 32.7655 18.1672 34.8113 18.1672C35.0387 18.1672 35.266 18.1672 35.5257 18.1353C37.3118 17.8804 38.5458 17.7529 39.7798 17.7529C40.9489 17.7529 42.1179 17.8485 43.5143 18.0716H43.7416C45.2029 18.0716 46.307 17.4343 46.7617 16.3191C47.3137 14.9808 46.7617 13.1963 45.3003 11.5713C47.6385 12.2723 49.0673 13.2601 49.5544 14.5028C49.9766 15.5543 49.7168 16.8289 48.775 18.2627L48.6451 18.454L50.691 20.3339C49.3596 21.2899 48.1255 21.8953 46.4044 22.0864L45.9823 22.1183L46.1771 22.5007C46.9565 24.0939 46.7942 25.6871 45.6251 27.376L45.5276 27.5034L49.0673 36.6484L49.1972 43.4036L49.2297 43.4673C49.9441 44.6463 51.3729 47.0043 52.9317 48.0877L54.0358 50.1907H46.5668Z" fill="#BD732C"/>
<path d="M51.7304 49.5525L51.3732 49.0745L51.016 49.5843H50.0418L47.6063 49.6162L48.0285 48.7559L50.0418 48.6921L52.0552 48.6284L52.4449 49.5525H51.7304ZM45.5929 43.4664L46.7945 40.5986C46.3074 41.2678 45.7878 41.8413 45.2682 42.3193C44.8135 42.7335 44.3264 43.084 43.8393 43.3708H43.5146H39.4229H38.3513H35.6884H34.1947L32.4086 45.7925V47.6725H30.6225H29.1937L30.6225 43.9125L30.655 43.8169L30.6225 43.7213C29.6158 41.2359 29.9406 38.4319 30.6225 35.5322V35.5004C29.4859 37.8264 28.7066 40.2162 29.1612 42.9247H27.7973H25.9463L25.2319 42.5105C26.2385 39.2284 25.6865 37.3166 24.1278 36.3288L23.6407 36.7749C25.2319 38.2726 25.8164 40.1206 23.9654 42.7654L21.0103 44.0399L19.6789 45.2508L19.0619 47.7999L16.3016 47.7362H16.0743L16.3016 46.8758L17.1135 43.9444L18.8021 42.16L20.0686 36.9024L21.7572 34.0027C22.4716 33.5566 23.4458 32.6644 24.1602 32.2183L27.7973 27.2794L28.9339 25.7181L30.6225 24.4116L32.8957 22.6591L32.5709 25.9411C32.3761 27.0882 34.422 27.6299 35.656 28.3628C35.8183 28.4584 35.9482 28.554 36.0781 28.6495C36.2405 29.5736 35.6235 29.956 36.2405 30.3702C36.9549 30.8163 37.6368 31.358 38.2863 31.7723C38.6435 32.0272 39.0007 32.2502 39.3579 32.4095C39.4554 32.4414 39.5203 32.4732 39.6178 32.5051H43.3523L43.4821 32.3777L45.2357 30.5933L45.6579 30.1472L46.9243 33.238L48.1583 36.2651L48.0285 43.3071L50.0418 46.2704L50.9511 47.6406H50.0418H48.4506L46.9568 45.442L45.5929 43.4664ZM31.3694 49.5525L31.0122 48.8833L30.655 49.2975L30.4926 49.4887L28.2844 49.5206L28.8365 48.5647H30.655L32.8632 48.5328L33.0256 49.5206L31.3694 49.5525ZM27.7648 48.1823L26.336 43.7213H27.8298H29.3236C29.0638 45.1552 28.4468 46.5891 27.8298 47.9911L27.7648 48.1823ZM19.8088 49.5206L19.0294 49.0745L18.9969 49.5525L16.3665 49.4887L15.7171 49.4568L15.9119 48.6921H16.399H19.6789L20.166 49.5206H19.8088ZM16.7562 37.221C16.6588 37.5396 16.5289 37.8264 16.3665 38.0813C15.5872 39.2284 14.0285 39.9613 12.9893 41.1722C12.7945 39.8339 12.9893 38.7186 13.6387 37.7946C14.3857 36.9343 15.3598 36.5518 16.399 36.3288C17.6655 36.042 18.9644 35.9465 19.8412 35.2773C19.5165 36.5837 18.4773 37.221 16.7562 37.221ZM30.655 21.1615C30.2978 20.9703 30.0055 20.6835 29.8431 20.2693C30.0705 20.0462 30.3303 19.855 30.655 19.7276C31.7916 19.2496 33.5127 19.409 35.656 20.1418L35.7209 20.1099C36.273 19.7594 36.6627 19.409 37.2472 19.2178C37.442 19.0903 37.8642 18.9947 38.3838 18.9629C38.7085 18.931 39.0657 18.8991 39.4554 18.8991C40.4945 18.8672 41.5337 18.9629 41.8584 19.0903C42.4105 19.3134 42.995 19.6957 43.5471 20.2693C44.1965 20.9384 44.7811 21.7988 45.1707 22.8184C45.2032 22.9459 45.2682 23.1052 45.3007 23.2645C45.528 24.1567 45.7228 25.495 45.3007 26.196C45.2032 26.3872 45.0408 26.5465 44.8135 26.6103C43.9692 26.7696 43.8068 26.2279 43.9043 24.9214H44.229C44.8135 24.8258 45.1707 23.1689 44.911 22.914C44.4239 22.6591 43.9043 22.6272 43.5471 22.9777C43.1899 23.3282 43.06 23.9974 43.3197 25.2082C43.3847 25.4632 43.4821 25.7181 43.5471 25.9092C43.9692 27.1201 44.3914 27.6299 44.8135 27.8848L44.9759 29.2231C44.5538 29.9878 44.294 30.8801 43.5471 31.3261C43.4821 31.358 43.3847 31.4217 43.2873 31.4536C42.4429 31.8041 40.8842 32.2183 39.6502 31.5173L39.5528 31.2943L40.2672 31.0394C39.975 31.0712 39.7151 31.0712 39.4554 31.0712C39.0657 31.0712 38.7085 31.0075 38.3838 30.9119C37.2472 30.5614 36.8575 29.6055 36.9874 28.2353L35.7209 27.375L33.9348 26.1323C33.6101 24.6028 34.2271 22.6591 34.357 20.9384C32.7009 21.4801 31.4669 21.5757 30.655 21.1615ZM45.1383 19.8869C45.1707 19.8232 45.2357 19.7594 45.2682 19.6957C45.5929 19.3771 46.2749 19.3134 46.9568 19.4089C47.8011 19.5045 48.6454 19.8232 48.9053 20.1737C48.548 20.5879 47.996 20.9066 46.9568 20.9703C46.8919 20.9703 46.8269 20.9703 46.762 20.9703C46.0475 20.9384 45.528 20.8428 45.2682 20.6517C45.0084 20.4923 44.9435 20.2374 45.1383 19.8869ZM53.1918 47.9274C51.9577 47.1308 50.8212 45.4738 50.0418 44.263C49.8145 43.9125 49.6521 43.6257 49.4898 43.3708L49.3274 36.6156L46.9243 30.4658L45.8202 27.6299C46.9893 25.9092 47.2491 24.1886 46.4047 22.4679C46.5996 22.436 46.762 22.436 46.9243 22.4042C48.0609 22.213 49.0351 21.7988 50.0093 21.1933C50.3665 20.9703 50.7238 20.7154 51.1134 20.4286L50.0093 19.4089L49.0026 18.453C49.5872 17.5608 49.9119 16.7324 50.0093 15.9995V15.2029C49.847 13.8646 48.7753 12.7494 46.9243 11.9209C46.4047 11.6978 45.8527 11.5066 45.2357 11.3155C44.9435 11.2198 44.6187 11.1561 44.294 11.0605C44.6512 11.3792 44.9435 11.6978 45.2357 12.0165C47.2491 14.4381 46.9893 16.7324 45.2357 17.5289C44.7811 17.752 44.1965 17.8476 43.5471 17.8158H43.4821C41.9234 17.5927 40.6569 17.4971 39.3905 17.4971C39.0333 17.4971 38.676 17.5289 38.3188 17.5289C37.4745 17.5927 36.5977 17.6883 35.656 17.8158L35.4611 17.8476C30.2329 18.2937 31.207 13.6096 34.2921 10.71C32.7333 11.4111 31.5318 12.112 30.6225 12.8131C28.1546 14.7249 27.9922 16.6368 29.5509 18.5486C28.9014 18.8991 28.3169 19.3771 27.7973 19.9506C27.6674 20.1099 27.5375 20.2693 27.4076 20.4286C27.5051 20.5879 27.635 20.7472 27.7973 20.8747C28.3494 21.3845 29.2911 21.7988 30.6225 22.213C30.8174 22.2767 31.0447 22.3404 31.272 22.4042C31.0447 22.5316 30.8174 22.6591 30.6225 22.8184C29.4859 23.5513 28.5767 24.4754 27.7973 25.4313C25.2644 28.4902 24.0304 32.1865 21.4974 33.1424C20.8804 33.6522 19.7114 34.5126 19.1593 34.8312C18.1201 35.4047 17.2759 35.2454 16.3665 35.3091C15.2949 35.3729 14.1583 35.6916 12.5347 37.7946C12.0475 38.7505 11.5604 40.1207 12.8594 43.5301C13.3141 42.3512 14.0934 40.981 15.4898 40.2481C15.8145 40.1206 16.1068 39.9295 16.3665 39.7064C16.8212 39.324 17.1784 38.7505 17.3732 37.922L18.932 37.8583C18.7371 39.2603 18.8021 39.9295 18.2176 41.3315L16.5289 43.4664L16.3341 44.0081L14.2233 50.0941H16.3341L21.2051 50.126L20.1984 48.1504C20.3608 47.2582 20.6855 46.366 21.0103 45.4738C21.7247 44.7091 23.1536 44.2948 24.2252 43.6894H24.9721L26.2385 47.5769L25.6865 49.7437H27.0829C27.0179 49.903 26.953 50.0941 26.888 50.2535H27.8298H30.655H34.8766C33.5452 47.4494 33.6751 45.5057 35.3961 44.4542H35.6884H38.3513H39.4229H43.5146H44.7811L45.2682 45.2508L46.8919 47.8636L46.145 50.349H46.9568H50.0418H54.5557L53.1918 47.9274Z" fill="#6A301A"/>
<path d="M38.7736 27.439L38.6437 22.3407L38.3514 22.9461L37.9617 23.8064L38.3514 25.6227L38.7736 27.439ZM35.721 23.2329C35.8185 23.2966 35.9484 23.3604 36.0458 23.4241C36.0133 24.2844 36.403 24.6668 37.2798 24.6349C37.5071 24.7305 37.6695 24.9536 37.7669 25.2085C37.9292 23.5515 37.572 22.4682 35.7535 22.7549C35.6561 22.7549 35.5587 22.7868 35.4613 22.8186C35.1365 22.9461 35.4288 23.0736 35.721 23.2329ZM38.5787 28.841C38.6437 29.1596 39.0334 29.2233 39.2931 29.2552C39.3581 29.2552 39.3906 29.2552 39.4555 29.2552C39.7803 29.2552 40.0725 29.3827 40.3323 29.5739C40.3973 28.9047 39.9426 28.5224 39.4555 28.3949C38.9684 28.2675 38.4813 28.4268 38.5787 28.841ZM43.6446 29.2871C43.807 29.2552 44.0993 29.1915 44.1317 28.9047C44.1967 28.5224 43.872 28.3949 43.5148 28.4905C43.19 28.5861 42.8653 28.9366 42.8977 29.5739C43.0601 29.3827 43.2874 29.2871 43.5148 29.2871C43.5472 29.2871 43.6122 29.2871 43.6446 29.2871ZM35.721 37.763L36.5653 39.866L35.8509 42.0965H35.721L34.9092 42.0009L35.5587 40.0253L34.8442 38.0179L35.6886 37.7311L35.721 37.763Z" fill="#6A301A"/>
</svg>
