<svg width="20" height="19" viewBox="0 0 20 19" fill="none" xmlns="http://www.w3.org/2000/svg">
<path d="M15.8356 13.3168C14.4605 13.3168 13.3418 14.4355 13.3418 15.8105C13.3418 17.1856 14.4605 18.3043 15.8356 18.3043C17.2106 18.3043 18.3293 17.1856 18.3293 15.8105C18.3293 14.4355 17.2106 13.3168 15.8356 13.3168ZM15.8356 16.808C15.2854 16.808 14.8381 16.3607 14.8381 15.8105C14.8381 15.2604 15.2854 14.813 15.8356 14.813C16.3857 14.813 16.8331 15.2604 16.8331 15.8105C16.8331 16.3607 16.3857 16.808 15.8356 16.808Z" fill="white"/>
<path d="M19.841 3.67853C19.6994 3.49724 19.4821 3.3915 19.252 3.3915H4.618L3.94467 0.5743C3.86412 0.237657 3.56311 3.41663e-09 3.21697 3.41663e-09H0.748129C0.334924 -3.90593e-05 0 0.334884 0 0.74809C0 1.16129 0.334924 1.49622 0.748129 1.49622H2.62646L5.05788 11.6698C5.13843 12.0067 5.43945 12.2441 5.78558 12.2441H17.4315C17.7755 12.2441 18.0752 12.0097 18.1577 11.676L19.9782 4.3194C20.0333 4.096 19.9827 3.85982 19.841 3.67853ZM16.8462 10.7479H6.37609L4.97558 4.88776H18.2961L16.8462 10.7479Z" fill="white"/>
<path d="M6.78283 13.3168C5.40774 13.3168 4.28906 14.4355 4.28906 15.8105C4.28906 17.1856 5.40778 18.3043 6.78283 18.3043C8.15788 18.3043 9.27659 17.1856 9.27659 15.8105C9.27659 14.4355 8.15788 13.3168 6.78283 13.3168ZM6.78283 16.808C6.23271 16.808 5.78532 16.3607 5.78532 15.8105C5.78532 15.2604 6.23271 14.813 6.78283 14.813C7.33295 14.813 7.78033 15.2604 7.78033 15.8105C7.78033 16.3607 7.33295 16.808 6.78283 16.808Z" fill="white"/>
</svg>
