<svg width="24" height="24" viewBox="0 0 24 24" fill="none" xmlns="http://www.w3.org/2000/svg">
<path d="M19.0028 16.9976C17.3527 16.9976 16.0103 18.34 16.0103 19.9901C16.0103 21.6401 17.3527 22.9826 19.0028 22.9826C20.6528 22.9826 21.9953 21.6401 21.9953 19.9901C21.9953 18.34 20.6528 16.9976 19.0028 16.9976ZM19.0028 21.1871C18.3426 21.1871 17.8058 20.6502 17.8058 19.9901C17.8058 19.3299 18.3426 18.7931 19.0028 18.7931C19.6629 18.7931 20.1998 19.3299 20.1998 19.9901C20.1998 20.6502 19.6629 21.1871 19.0028 21.1871Z" fill="#2DA0A6"/>
<path d="M23.8092 5.4317C23.6392 5.21415 23.3786 5.08726 23.1024 5.08726H5.54159L4.73361 1.70662C4.63695 1.30264 4.27573 1.01746 3.86037 1.01746H0.897755C0.401909 1.01741 0 1.41932 0 1.91516C0 2.41101 0.401909 2.81292 0.897755 2.81292H3.15175L6.06946 15.0212C6.16611 15.4255 6.52733 15.7104 6.9427 15.7104H20.9179C21.3305 15.7104 21.6902 15.4291 21.7893 15.0287L23.9738 6.20073C24.0399 5.93265 23.9792 5.64924 23.8092 5.4317ZM20.2155 13.9149H7.65131L5.97069 6.88277H21.9553L20.2155 13.9149Z" fill="#2DA0A6"/>
<path d="M8.13949 16.9976C6.48939 16.9976 5.14697 18.34 5.14697 19.9901C5.14697 21.6401 6.48943 22.9826 8.13949 22.9826C9.78955 22.9826 11.132 21.6401 11.132 19.9901C11.132 18.34 9.78955 16.9976 8.13949 16.9976ZM8.13949 21.1871C7.47935 21.1871 6.94248 20.6502 6.94248 19.9901C6.94248 19.3299 7.47935 18.7931 8.13949 18.7931C8.79963 18.7931 9.3365 19.3299 9.3365 19.9901C9.3365 20.6502 8.79963 21.1871 8.13949 21.1871Z" fill="#2DA0A6"/>
</svg>
