<svg width="24" height="24" viewBox="0 0 24 24" fill="none" xmlns="http://www.w3.org/2000/svg">
<path fill-rule="evenodd" clip-rule="evenodd" d="M8 11C8.88687 10.9999 9.74858 10.7052 10.4498 10.1622C11.151 9.61915 11.6519 8.85861 11.874 7.99999H22C22.2652 7.99999 22.5196 7.89463 22.7071 7.7071C22.8946 7.51956 23 7.26521 23 6.99999C23 6.73477 22.8946 6.48042 22.7071 6.29288C22.5196 6.10535 22.2652 5.99999 22 5.99999H11.874C11.6516 5.14175 11.1504 4.38167 10.4493 3.83906C9.7481 3.29646 8.8866 3.00204 8 3.00204C7.1134 3.00204 6.2519 3.29646 5.55074 3.83906C4.84957 4.38167 4.34844 5.14175 4.126 5.99999H2C1.73478 5.99999 1.48043 6.10535 1.29289 6.29288C1.10536 6.48042 1 6.73477 1 6.99999C1 7.26521 1.10536 7.51956 1.29289 7.7071C1.48043 7.89463 1.73478 7.99999 2 7.99999H4.126C4.57 9.72499 6.136 11 8 11ZM19.874 18C19.6516 18.8582 19.1504 19.6183 18.4493 20.1609C17.7481 20.7035 16.8866 20.9979 16 20.9979C15.1134 20.9979 14.2519 20.7035 13.5507 20.1609C12.8496 19.6183 12.3484 18.8582 12.126 18H2C1.73478 18 1.48043 17.8946 1.29289 17.7071C1.10536 17.5196 1 17.2652 1 17C1 16.7348 1.10536 16.4804 1.29289 16.2929C1.48043 16.1053 1.73478 16 2 16H12.126C12.3484 15.1417 12.8496 14.3817 13.5507 13.8391C14.2519 13.2965 15.1134 13.002 16 13.002C16.8866 13.002 17.7481 13.2965 18.4493 13.8391C19.1504 14.3817 19.6516 15.1417 19.874 16H22C22.2652 16 22.5196 16.1053 22.7071 16.2929C22.8946 16.4804 23 16.7348 23 17C23 17.2652 22.8946 17.5196 22.7071 17.7071C22.5196 17.8946 22.2652 18 22 18H19.874ZM16 19C16.5304 19 17.0391 18.7893 17.4142 18.4142C17.7893 18.0391 18 17.5304 18 17C18 16.4696 17.7893 15.9608 17.4142 15.5858C17.0391 15.2107 16.5304 15 16 15C15.4696 15 14.9609 15.2107 14.5858 15.5858C14.2107 15.9608 14 16.4696 14 17C14 17.5304 14.2107 18.0391 14.5858 18.4142C14.9609 18.7893 15.4696 19 16 19ZM10 6.99999C10 7.53042 9.78929 8.03913 9.41421 8.4142C9.03914 8.78927 8.53043 8.99999 8 8.99999C7.46957 8.99999 6.96086 8.78927 6.58579 8.4142C6.21071 8.03913 6 7.53042 6 6.99999C6 6.46956 6.21071 5.96085 6.58579 5.58578C6.96086 5.2107 7.46957 4.99999 8 4.99999C8.53043 4.99999 9.03914 5.2107 9.41421 5.58578C9.78929 5.96085 10 6.46956 10 6.99999Z" fill="#121212"/>
</svg>
