<svg width="44" height="44" viewBox="0 0 44 44" fill="none" xmlns="http://www.w3.org/2000/svg">
<g clip-path="url(#clip0_511_2182)">
<path d="M21.5 36C30.6127 36 38 28.6127 38 19.5C38 10.3873 30.6127 3 21.5 3C12.3873 3 5 10.3873 5 19.5C5 28.6127 12.3873 36 21.5 36Z" fill="white"/>
<path d="M22.0014 31.0848C28.4688 31.0848 33.7118 25.8419 33.7118 19.3744C33.7118 12.907 28.4688 7.66406 22.0014 7.66406C15.5339 7.66406 10.291 12.907 10.291 19.3744C10.291 25.8419 15.5339 31.0848 22.0014 31.0848Z" fill="#2DA0A6"/>
<path d="M35.7611 5.69959C32.0857 2.02417 27.1988 0 22.0009 0C16.803 0 11.9161 2.02417 8.24069 5.69959C4.56519 9.37519 2.54102 14.2619 2.54102 19.4599C2.54102 28.6301 8.95193 36.547 17.8581 38.4762L22.0009 44L26.1438 38.4761C35.0499 36.5469 41.4608 28.6301 41.4608 19.4599C41.4608 14.2619 39.4366 9.37519 35.7611 5.69959ZM22.0009 5.08024C29.8824 5.08024 36.2944 11.4924 36.2944 19.3738C36.2944 27.2552 29.8824 33.6673 22.0009 33.6673C14.1194 33.6673 7.70736 27.2552 7.70736 19.3738C7.70736 11.4924 14.1194 5.08024 22.0009 5.08024Z" fill="white"/>
</g>
<defs>
<clipPath id="clip0_511_2182">
<rect width="44" height="44" fill="white"/>
</clipPath>
</defs>
</svg>
