<svg width="32" height="32" viewBox="0 0 32 32" fill="none" xmlns="http://www.w3.org/2000/svg">
<g clip-path="url(#clip0_3882_7)">
<path d="M14.425 22.5399C11.9443 22.2812 9.70751 21.6702 7.79249 20.1725C7.55487 19.9861 7.30955 19.8065 7.09271 19.5984C6.25451 18.7933 6.17005 17.8713 6.8333 16.9212C7.40071 16.1081 8.35319 15.8906 9.34321 16.3575C9.53491 16.448 9.71756 16.5609 9.89251 16.6823C13.4615 19.1345 18.3643 19.2022 21.9467 16.7925C22.3016 16.5204 22.681 16.2985 23.1207 16.1852C23.9756 15.9657 24.773 16.2797 25.2318 17.0278C25.7559 17.8821 25.7492 18.7159 25.1034 19.3792C24.1127 20.396 22.9213 21.1316 21.5975 21.6451C20.3457 22.1304 18.9746 22.3747 17.6176 22.5369C17.8224 22.7598 17.9189 22.8694 18.0469 22.9981C19.8896 24.8494 21.7402 26.693 23.5768 28.5501C24.2025 29.1828 24.3332 29.9674 23.9887 30.7034C23.612 31.5077 22.7688 32.0369 21.942 31.9803C21.4182 31.9441 21.0096 31.6834 20.6466 31.3177C19.2561 29.9185 17.8395 28.5451 16.4771 27.1193C16.0806 26.7048 15.8899 26.7832 15.54 27.1431C14.1411 28.5833 12.7195 30.0013 11.2894 31.4112C10.6473 32.0443 9.88313 32.1583 9.13843 31.7966C8.34682 31.4129 7.8431 30.6049 7.88197 29.7928C7.90879 29.2435 8.17891 28.8239 8.55595 28.4475C10.3795 26.6267 12.198 24.8011 14.0171 22.9773C14.1375 22.856 14.2497 22.7273 14.425 22.5399V22.5399Z" fill="#2DA0A6"/>
<path d="M15.9361 16.1973C11.5105 16.1822 7.88156 12.5133 7.90736 8.08072C7.93283 3.59916 11.5641 -0.0123685 16.0333 3.18376e-05C20.5115 0.0120971 24.1059 3.67557 24.0835 8.20372C24.0607 12.6273 20.4066 16.2127 15.9361 16.1973ZM19.9582 8.09144C19.9505 5.89054 18.1977 4.1384 16.0011 4.13639C13.7861 4.13405 12.0176 5.91803 12.0347 8.13903C12.0511 10.3316 13.819 12.0713 16.0216 12.0632C18.2174 12.0555 19.9656 10.292 19.9582 8.09144Z" fill="#2DA0A6"/>
</g>
<defs>
<clipPath id="clip0_3882_7">
<rect width="32" height="32" fill="white"/>
</clipPath>
</defs>
</svg>
