<svg width="16" height="16" viewBox="0 0 16 16" fill="none" xmlns="http://www.w3.org/2000/svg">
<g clip-path="url(#clip0_511_2667)">
<path d="M11.7822 0.520261C11.3335 0.292007 10.7847 0.470855 10.5565 0.919707L3.77694 14.2541C3.54874 14.7029 3.72759 15.2516 4.17638 15.4798C4.30874 15.5471 4.44979 15.579 4.58877 15.579C4.92094 15.579 5.24114 15.3968 5.40207 15.0804L12.1816 1.74594C12.4098 1.29715 12.231 0.748455 11.7822 0.520261Z" fill="#2DA0A6"/>
<path d="M6.91436 4.91135C6.91436 3.00503 5.36343 1.4541 3.45712 1.4541C1.55093 1.4541 0 3.00503 0 4.91135C0 6.8176 1.55093 8.36853 3.45718 8.36853C5.3635 8.36853 6.91436 6.8176 6.91436 4.91135ZM3.45718 6.54541C2.5562 6.54541 1.82312 5.81233 1.82312 4.91135C1.82312 4.0103 2.5562 3.27722 3.45718 3.27722C4.35823 3.27722 5.0913 4.01024 5.0913 4.91135C5.09124 5.81233 4.35823 6.54541 3.45718 6.54541Z" fill="#2DA0A6"/>
<path d="M12.5427 7.63159C10.6364 7.63159 9.08545 9.18252 9.08545 11.0888C9.08545 12.995 10.6363 14.546 12.5427 14.546C14.449 14.546 15.9999 12.9951 15.9999 11.0888C15.9999 9.18246 14.449 7.63159 12.5427 7.63159ZM12.5427 12.7228C11.6417 12.7228 10.9086 11.9897 10.9086 11.0887C10.9086 10.1877 11.6417 9.45465 12.5427 9.45465C13.4437 9.45465 14.1768 10.1877 14.1768 11.0887C14.1768 11.9897 13.4437 12.7228 12.5427 12.7228Z" fill="#2DA0A6"/>
</g>
<defs>
<clipPath id="clip0_511_2667">
<rect width="16" height="16" fill="white"/>
</clipPath>
</defs>
</svg>
