<svg width="23" height="23" viewBox="0 0 23 23" fill="none" xmlns="http://www.w3.org/2000/svg">
<path d="M10.5691 0.56543C4.74145 0.56543 0 5.18074 0 10.8533C0 16.5263 4.74145 21.1413 10.5691 21.1413C16.3971 21.1413 21.1382 16.5263 21.1382 10.8533C21.1382 5.18074 16.3971 0.56543 10.5691 0.56543ZM10.5691 19.242C5.81723 19.242 1.95122 15.4788 1.95122 10.8534C1.95122 6.22795 5.81723 2.46474 10.5691 2.46474C15.321 2.46474 19.187 6.2279 19.187 10.8533C19.187 15.4788 15.321 19.242 10.5691 19.242Z" fill="#2DA0A6"/>
<path d="M22.7145 21.3325L18.121 16.8612C17.7398 16.4902 17.1226 16.4902 16.7414 16.8612C16.3603 17.2319 16.3603 17.8333 16.7414 18.204L21.335 22.6753C21.5255 22.8608 21.775 22.9536 22.0247 22.9536C22.2742 22.9536 22.5239 22.8608 22.7145 22.6753C23.0957 22.3047 23.0957 21.7032 22.7145 21.3325Z" fill="#2DA0A6"/>
</svg>
