<svg width="22" height="18" viewBox="0 0 22 18" fill="none" xmlns="http://www.w3.org/2000/svg">
<path fill-rule="evenodd" clip-rule="evenodd" d="M21.7905 13.6129L21.7073 13.7071L17.7072 17.7071C17.6802 17.7341 17.6517 17.7596 17.6217 17.7834L17.5004 17.8661L17.4272 17.9045L17.3401 17.9407L17.2337 17.9726L17.1167 17.9933L17.0331 17.9995L16.9411 17.9983L16.8253 17.9847L16.6879 17.9503L16.5769 17.9063L16.4794 17.854L16.3833 17.7872L16.293 17.7071L12.2929 13.7071C11.9024 13.3166 11.9024 12.6834 12.2929 12.2929C12.6534 11.9324 13.2206 11.9047 13.6129 12.2097L13.7071 12.2929L16 14.585L16.0001 1C16.0001 0.48716 16.3861 0.0644901 16.8834 0.00673008L17.0001 0C17.5524 0 18.0001 0.44772 18.0001 1L18 14.585L20.293 12.2929C20.6535 11.9324 21.2208 11.9047 21.6131 12.2097L21.7073 12.2929C22.0378 12.6233 22.0886 13.1275 21.8598 13.5114L21.7905 13.6129ZM0.292898 4.29275L4.29297 0.29275L4.40492 0.19617L4.5158 0.12473L4.62902 0.07096L4.73424 0.0355699L4.8253 0.0151501L4.94107 0.00159001H5.05925L5.17477 0.01513L5.31286 0.04972L5.36681 0.0692401L5.45397 0.10852L5.52079 0.14592L5.60181 0.20098L5.66558 0.2534L5.70724 0.29275L9.70731 4.29275L9.79051 4.38695C10.0701 4.74655 10.0701 5.25315 9.79051 5.61275L9.70731 5.70696L9.61311 5.79015C9.25351 6.06976 8.74688 6.06976 8.38727 5.79015L8.29306 5.70696L6 3.41485L6.00013 16.9999C6.00013 17.5127 5.61409 17.9354 5.11675 17.9931L5.00013 17.9999L4.88346 17.9931C4.42438 17.9398 4.06013 17.5756 4.00681 17.1165L4.00008 16.9999L4 3.41485L1.70715 5.70696L1.61295 5.79015C1.22064 6.09517 0.653398 6.06744 0.292898 5.70696C-0.0675912 5.34648 -0.0953222 4.77924 0.209708 4.38695L0.292898 4.29275Z" fill="#121212"/>
</svg>
