<svg width="167" height="175" viewBox="0 0 167 175" fill="none" xmlns="http://www.w3.org/2000/svg">
<path d="M106.209 147.122C87.7436 164.182 70.0508 163.562 53.1306 145.263C36.2103 126.964 27.8062 107.419 27.9183 86.6282C28.0304 65.8374 37.494 49.0635 56.3091 36.3066C75.1242 23.5497 96.8971 22.2681 121.628 32.4619C146.358 42.6556 154.587 60.0491 146.315 84.6421C138.043 109.235 124.674 130.062 106.209 147.122Z" fill="#F2F4F4"/>
<rect x="67.5273" y="75.9238" width="70.5288" height="26.0285" fill="white"/>
<path d="M84.195 80.3511C81.9169 80.3511 80.0625 82.2692 80.0625 84.6256C80.0625 86.4206 81.1582 88.036 82.7907 88.6476L91.0841 91.7511L88.0836 83.1709C87.4922 81.4844 85.9303 80.3511 84.195 80.3511Z" fill="#2DA0A6"/>
<path d="M108.99 84.6256C108.99 82.2692 107.136 80.3511 104.858 80.3511C103.122 80.3511 101.561 81.4844 100.969 83.173L97.9688 91.7512L106.264 88.6477C107.895 88.036 108.99 86.4206 108.99 84.6256Z" fill="#2DA0A6"/>
<path d="M96.5938 83.1202L97.0841 81.7182C98.2645 78.3432 101.39 76.0766 104.859 76.0766C109.417 76.0766 113.124 79.9107 113.124 84.6255C113.124 88.2134 110.933 91.4464 107.672 92.6673L106.316 93.1745H138.057V75.5276C138.057 71.1093 134.475 67.5276 130.057 67.5276H96.5938V83.1202Z" fill="#2DA0A6"/>
<path d="M81.3845 92.6673C78.1216 91.4464 75.9303 88.2135 75.9303 84.6256C75.9303 79.9107 79.637 76.0767 84.1954 76.0767C87.6641 76.0767 90.7897 78.3433 91.9701 81.716L92.4604 83.1183V67.5276H75.5273C71.1091 67.5276 67.5273 71.1093 67.5273 75.5276V93.1743H82.74L81.3845 92.6673Z" fill="#2DA0A6"/>
<path d="M106.384 100.919C107.324 101.567 107.58 102.845 106.961 103.805C106.314 104.809 104.966 105.078 103.983 104.401L96.5938 99.3057V114.547H130.057C134.475 114.547 138.057 110.965 138.057 106.547V97.4489H101.352L106.384 100.919Z" fill="#2DA0A6"/>
<path d="M92.4604 99.3057L85.0711 104.401C84.0884 105.078 82.74 104.809 82.0933 103.805C81.4745 102.845 81.7299 101.567 82.6702 100.919L87.7018 97.4489H67.5273V106.547C67.5273 110.965 71.1091 114.547 75.5273 114.547H92.4604V99.3057Z" fill="#2DA0A6"/>
<path d="M44.3983 127.515C42.9884 129.904 40.8843 131.3 37.9919 131.724C36.5846 131.931 35.3843 131.734 34.3453 131.182C33.2972 130.625 32.3363 129.665 31.4898 128.218C30.6506 126.783 30.2577 125.396 30.2617 124.043C30.2658 122.69 30.6667 121.308 31.5139 119.883C33.1949 117.056 35.4802 115.747 38.4523 115.798C39.9805 115.825 41.2196 116.188 42.2162 116.843C43.2124 117.498 44.0319 118.486 44.6518 119.868C45.899 122.65 45.7886 125.16 44.3983 127.515Z" stroke="#2DA0A6" stroke-width="2"/>
<path d="M136.546 43.6042C135.895 44.6609 134.929 45.2884 133.542 45.4834C132.886 45.5756 132.357 45.4851 131.912 45.2585C131.461 45.0285 131.021 44.6201 130.616 43.9572C130.219 43.3053 130.049 42.704 130.051 42.14C130.053 41.5761 130.226 40.9771 130.627 40.3301C131.415 39.0601 132.453 38.493 133.838 38.516C134.57 38.5281 135.13 38.694 135.563 38.9668C135.994 39.2381 136.362 39.6543 136.651 40.2703C137.234 41.5178 137.173 42.5861 136.546 43.6042Z" stroke="#2DA0A6" stroke-width="2"/>
</svg>
