<svg width="175" height="172" viewBox="0 0 175 172" fill="none" xmlns="http://www.w3.org/2000/svg">
<path d="M92.2528 23.0714C116.193 15.3974 131.971 23.4257 139.589 47.156C147.206 70.8864 146.577 92.1523 137.701 110.954C128.826 129.755 113.168 140.969 90.7264 144.594C68.2852 148.219 48.0053 140.192 29.8866 120.514C11.768 100.836 11.6477 81.5945 29.5258 62.7897C47.4039 43.9848 68.3129 30.7454 92.2528 23.0714Z" fill="#F2F4F4"/>
<path d="M148.137 12.7184C146.727 15.1069 144.623 16.503 141.73 16.9272C140.323 17.1336 139.123 16.9375 138.084 16.3854C137.035 15.8285 136.075 14.8679 135.228 13.4209C134.389 11.9863 133.996 10.5989 134 9.24611C134.004 7.89345 134.405 6.51088 135.252 5.08613C136.933 2.25911 139.218 0.949964 142.191 1.00146C143.719 1.02794 144.958 1.39158 145.954 2.04629C146.951 2.70074 147.77 3.6891 148.39 5.0716C149.637 7.85282 149.527 10.3629 148.137 12.7184Z" stroke="#2DA0A6" stroke-width="2"/>
<path d="M70.4952 43.6042C69.8444 44.6609 68.8786 45.2884 67.4914 45.4834C66.8356 45.5756 66.3063 45.4851 65.8613 45.2585C65.4097 45.0285 64.9703 44.6201 64.5657 43.9572C64.1677 43.3053 63.9983 42.704 64 42.14C64.0018 41.5761 64.1749 40.9771 64.5763 40.3301C65.3643 39.0601 66.4026 38.493 67.7875 38.516C68.5192 38.5281 69.0792 38.694 69.5125 38.9668C69.9434 39.2381 70.3117 39.6543 70.5999 40.2703C71.1837 41.5178 71.1223 42.5861 70.4952 43.6042Z" stroke="#2DA0A6" stroke-width="2"/>
<path fill-rule="evenodd" clip-rule="evenodd" d="M121.902 71.4123C127.971 72.8206 130.293 76.3694 133.204 81.2539H121.902V71.4123ZM86.4345 81.6641C87.6228 81.6641 88.4853 82.2376 88.4853 83.5781C88.4853 84.7087 87.5704 85.6257 86.4404 85.6289H74.0508C72.918 85.6289 72 86.5475 72 87.6797C72 88.8124 72.918 89.7305 74.0508 89.7305H92.5078C93.6512 89.7305 94.5666 90.648 94.5666 91.7812C94.5666 92.914 93.6486 93.832 92.5158 93.832H74.0508C72.918 93.832 72 94.7501 72 95.8828C72 97.0155 72.918 97.9336 74.0508 97.9336H78.5625V104.086C78.5625 105.219 79.4805 106.137 80.6133 106.137H84.7357C85.4705 109.757 88.669 112.426 92.4395 112.426C96.2099 112.426 99.4084 109.757 100.143 106.137H120.966C121.701 109.757 124.899 112.426 128.67 112.426C132.44 112.426 135.639 109.757 136.374 106.137H139.949C141.082 106.137 142 105.219 142 104.086V91.7812C142 85.764 135.653 85.3645 135.647 85.3555H119.852C118.719 85.3555 117.801 84.4374 117.801 83.3047V71H80.6133C79.4805 71 78.5625 71.918 78.5625 73.0508V77.5625H76.1016C74.9688 77.5625 74.0508 78.4805 74.0508 79.6133C74.0508 80.746 74.9688 81.6641 76.1016 81.6641H86.4345ZM131.328 101.906C132.797 103.374 132.797 105.755 131.328 107.224C128.967 109.585 124.91 107.905 124.91 104.564C124.91 101.224 128.967 99.5443 131.328 101.906ZM95.098 101.906C96.5661 103.374 96.5661 105.755 95.098 107.224C92.7364 109.585 88.6797 107.905 88.6797 104.564C88.6797 101.224 92.7364 99.5443 95.098 101.906Z" fill="#2DA0A6"/>
</svg>
