<svg width="88" height="92" viewBox="0 0 88 92" fill="none" xmlns="http://www.w3.org/2000/svg">
<path d="M4.00208 71.0374C9.94612 88.5121 21.0442 95.0143 37.2962 90.544C53.5482 86.0737 67.5431 77.3364 79.2807 64.332C91.0182 51.3276 90.9054 38.5671 78.9421 26.0503C66.9788 13.5336 53.6611 6.0561 38.9891 3.61777C24.3171 1.17945 13.332 7.43781 6.03359 22.3929C-1.26478 37.3479 -1.94195 53.5628 4.00208 71.0374Z" fill="#EFF3F6"/>
<path d="M86.2729 8.28976C85.3494 9.7891 83.9714 10.6768 82.0324 10.9493C81.1008 11.0802 80.3249 10.9538 79.6625 10.6165C78.9936 10.2759 78.3661 9.68206 77.8027 8.75906C77.2459 7.84706 76.9975 6.98605 77 6.16268C77.0026 5.33942 77.2563 4.48155 77.8181 3.57601C78.9269 1.789 80.4176 0.968245 82.3863 1.00093C83.4099 1.01793 84.2185 1.25087 84.8571 1.65293C85.4933 2.05342 86.0236 2.66116 86.4305 3.53083C87.2516 5.28564 87.1726 6.82897 86.2729 8.28976Z" stroke="#D98F4E" stroke-width="2"/>
<g clip-path="url(#clip0_3934_13)">
<path d="M0.872403 44.083C0.184427 44.3364 -0.170185 45.099 0.0804311 45.7896L0.917777 48.0935L7.29343 41.7177L0.872403 44.083Z" fill="#D98F4E"/>
<path d="M6.90625 64.5623L10.7461 75.1219C10.8661 75.4553 11.1167 75.7273 11.4367 75.8739C11.6153 75.9565 11.8073 75.9993 11.9993 75.9993C12.1567 75.9993 12.3113 75.9726 12.4607 75.9167L16.6979 74.3541L6.90625 64.5623Z" fill="#D98F4E"/>
<path d="M63.9154 55.5466L59.5209 43.4644L48.9747 54.0107L54.2011 52.0854C54.8864 51.824 55.6597 52.1814 55.913 52.8747C56.169 53.5653 55.8144 54.3333 55.1237 54.5866L48.4839 57.0346C48.3319 57.0906 48.1773 57.1172 48.0226 57.1172C47.4812 57.1172 46.9692 56.7838 46.772 56.2452C46.7694 56.2372 46.772 56.2292 46.7694 56.2212L35.5938 67.3968L63.1234 57.2532C63.814 56.9999 64.1686 56.2372 63.9154 55.5466Z" fill="#D98F4E"/>
<path d="M63.6065 33.7234L42.2739 12.3907C41.7539 11.8708 40.9086 11.8708 40.3886 12.3907L0.389986 52.3893C-0.129995 52.9093 -0.129995 53.7547 0.389986 54.2746L21.7226 75.6073C21.9812 75.8686 22.3226 75.9993 22.6639 75.9993C23.0053 75.9993 23.3466 75.8686 23.6079 75.6099L63.6065 35.6113C64.1265 35.0887 64.1265 34.246 63.6065 33.7234ZM15.6082 48.9442L10.275 54.2773C10.0136 54.5359 9.67241 54.6666 9.33105 54.6666C8.98968 54.6666 8.64844 54.536 8.38708 54.2773C7.8671 53.7573 7.8671 52.9119 8.38708 52.392L13.7203 47.0588C14.2402 46.5388 15.0856 46.5388 15.6056 47.0588C16.1256 47.5789 16.1282 48.4215 15.6082 48.9442ZM38.634 50.6374C37.69 51.5814 36.4075 52.0347 34.9808 52.0347C32.6235 52.0347 29.8689 50.8001 27.565 48.4935C25.8797 46.8082 24.6958 44.7922 24.2345 42.819C23.7225 40.6191 24.1439 38.7046 25.4211 37.4246C26.6984 36.1447 28.613 35.7233 30.8155 36.238C32.7888 36.6994 34.8048 37.8806 36.49 39.5685C40.194 43.2697 41.1379 48.1335 38.634 50.6374ZM55.6068 35.6113L50.2736 40.9445C50.0122 41.2031 49.671 41.3339 49.3296 41.3339C48.9883 41.3339 48.647 41.2032 48.3857 40.9445C47.8657 40.4245 47.8657 39.5792 48.3857 39.0592L53.7188 33.726C54.2388 33.206 55.0842 33.206 55.6042 33.726C56.1241 34.246 56.1268 35.0887 55.6068 35.6113Z" fill="#D98F4E"/>
</g>
<defs>
<clipPath id="clip0_3934_13">
<rect width="64" height="64" fill="white" transform="translate(0 12)"/>
</clipPath>
</defs>
</svg>
