<svg width="24" height="24" viewBox="0 0 24 24" fill="none" xmlns="http://www.w3.org/2000/svg">
<g clip-path="url(#clip0_511_2226)">
<path d="M23.7598 9.63127C23.1269 6.48897 21.3093 3.78162 18.6409 2.00799C16.0915 0.313403 13.0272 -0.339459 10.0069 0.16739C9.98688 0.17039 9.96691 0.17339 9.9469 0.17639C3.4284 1.30915 -0.952594 7.53375 0.180119 14.0502C0.270117 14.5721 0.397052 15.093 0.554033 15.5929C1.21486 17.7394 1.05193 20.0398 0.0961203 22.0714C-0.0708452 22.4233 -0.0158619 22.8412 0.235102 23.1401C0.486066 23.4391 0.883933 23.5621 1.26385 23.4611L5.74482 22.2374C7.64238 23.3991 9.7849 24 11.9724 24C12.7672 24 13.5681 23.921 14.3659 23.76C17.5082 23.1272 20.2155 21.3096 21.9891 18.6412C23.7628 15.9728 24.3916 12.7735 23.7598 9.63127ZM20.3236 17.5334C18.8449 19.7579 16.5884 21.2736 13.971 21.8005C11.3556 22.3243 8.6872 21.8025 6.4627 20.3238C6.29672 20.2138 6.10378 20.1568 5.90883 20.1568C5.82085 20.1568 5.73189 20.1688 5.64592 20.1919L2.59362 21.0247C3.10951 19.0581 3.0715 16.9756 2.46364 14.997C2.33065 14.5751 2.22467 14.1432 2.14972 13.7083C1.20891 8.29156 4.83706 3.11872 10.2429 2.15495C10.2609 2.15293 10.2789 2.14993 10.2969 2.14693C12.8273 1.71002 15.3967 2.25291 17.5342 3.67259C19.7587 5.15123 21.2734 7.40775 21.8002 10.0252C22.3271 12.6436 21.8022 15.31 20.3236 17.5334Z" fill="white"/>
<path d="M15.9965 8.99927H7.99831C7.44543 8.99927 6.99854 9.44617 6.99854 9.99905C6.99854 10.5519 7.44543 10.9988 7.99831 10.9988H15.9965C16.5484 10.9988 16.9963 10.5519 16.9963 9.99905C16.9963 9.44617 16.5494 8.99927 15.9965 8.99927Z" fill="white"/>
<path d="M15.9965 12.9985H7.99831C7.44543 12.9985 6.99854 13.4454 6.99854 13.9983C6.99854 14.5512 7.44543 14.9981 7.99831 14.9981H15.9965C16.5484 14.9981 16.9963 14.5512 16.9963 13.9983C16.9963 13.4454 16.5494 12.9985 15.9965 12.9985Z" fill="white"/>
</g>
<defs>
<clipPath id="clip0_511_2226">
<rect width="24" height="24" fill="white"/>
</clipPath>
</defs>
</svg>
