<svg width="24" height="24" viewBox="0 0 24 24" fill="none" xmlns="http://www.w3.org/2000/svg">
<path d="M12.0036 18.75C11.4267 18.7488 10.851 18.6951 10.2838 18.5895C10.1079 18.5613 9.94772 18.4714 9.832 18.3359C9.71629 18.2004 9.6526 18.0282 9.65234 17.85C9.65422 17.7401 9.67984 17.6319 9.72744 17.5329C9.77505 17.4338 9.84353 17.3462 9.92816 17.2761C10.0128 17.206 10.1116 17.1551 10.2178 17.1267C10.324 17.0984 10.435 17.0934 10.5433 17.112C11.0248 17.2026 11.5136 17.2488 12.0036 17.25C16.4466 17.25 20.3053 13.3597 21.5188 12C20.7102 11.0948 19.8216 10.2645 18.8638 9.51898C18.7859 9.45865 18.7207 9.38357 18.6718 9.29803C18.6229 9.21248 18.5913 9.11814 18.5789 9.02039C18.5538 8.82299 18.6081 8.62369 18.73 8.46635C18.8518 8.30901 19.0311 8.20652 19.2286 8.18141C19.3263 8.16898 19.4255 8.17592 19.5206 8.20184C19.6157 8.22776 19.7047 8.27215 19.7826 8.33248C21.0037 9.27327 22.1147 10.3488 23.0946 11.5387C23.1979 11.6707 23.2541 11.8335 23.2541 12.0011C23.2541 12.1687 23.1979 12.3315 23.0946 12.4635C22.8928 12.7192 18.0966 18.75 12.0036 18.75Z" fill="#2DA0A6"/>
<path d="M20.0339 3.96971C19.8932 3.82911 19.7025 3.75012 19.5036 3.75012C19.3048 3.75012 19.114 3.82911 18.9734 3.96971L16.5884 6.35471C15.6854 5.91958 14.73 5.60296 13.7459 5.41271C13.1714 5.30469 12.5882 5.25021 12.0036 5.24996C5.91064 5.24996 1.11439 11.2807 0.91339 11.5372C0.810055 11.6692 0.753906 11.832 0.753906 11.9996C0.753906 12.1672 0.810055 12.33 0.91339 12.462C1.89233 13.6508 3.00236 14.7254 4.22239 15.6652C4.79952 16.1175 5.40418 16.5336 6.03289 16.911L3.97339 18.9697C3.90176 19.0389 3.84462 19.1217 3.80531 19.2132C3.76601 19.3047 3.74532 19.4031 3.74445 19.5027C3.74359 19.6022 3.76256 19.701 3.80027 19.7932C3.83798 19.8853 3.89367 19.9691 3.96409 20.0395C4.03451 20.1099 4.11825 20.1656 4.21042 20.2033C4.3026 20.241 4.40136 20.26 4.50094 20.2591C4.60053 20.2583 4.69894 20.2376 4.79044 20.1983C4.88195 20.159 4.9647 20.1018 5.03389 20.0302L20.0339 5.03021C20.1745 4.88957 20.2535 4.69883 20.2535 4.49996C20.2535 4.30109 20.1745 4.11036 20.0339 3.96971ZM5.14339 14.4817C4.18557 13.736 3.29697 12.9054 2.48839 12C3.70189 10.641 7.56064 6.74996 12.0036 6.74996C12.4971 6.75035 12.9895 6.79655 13.4744 6.88796C14.1533 7.01713 14.8166 7.21827 15.4529 7.48796L14.0714 8.86946C13.3503 8.39301 12.4868 8.18025 11.6269 8.26718C10.767 8.35411 9.96357 8.73539 9.35244 9.34651C8.74131 9.95764 8.36004 10.7611 8.27311 11.621C8.18618 12.4809 8.39894 13.3444 8.87539 14.0655L7.12864 15.8152C6.43403 15.4217 5.77037 14.9759 5.14339 14.4817ZM9.97864 12.963C9.83248 12.6629 9.75559 12.3338 9.75364 12C9.75379 11.405 9.98882 10.8341 10.4076 10.4115C10.7415 10.0939 11.1628 9.88355 11.6172 9.80737C12.0716 9.73118 12.5384 9.79269 12.9576 9.98396L9.97864 12.963Z" fill="#2DA0A6"/>
</svg>
