<svg width="24" height="24" viewBox="0 0 24 24" fill="none" xmlns="http://www.w3.org/2000/svg">
<g clip-path="url(#clip0_511_2614)">
<path d="M12.0004 13.5182C4.78926 13.5182 0.817871 16.9296 0.817871 23.1241C0.817871 23.6079 1.20998 24 1.69378 24H22.3069C22.7907 24 23.1828 23.6079 23.1828 23.1241C23.1829 16.93 19.2115 13.5182 12.0004 13.5182ZM2.60156 22.2482C2.94609 17.6167 6.10373 15.2701 12.0004 15.2701C17.897 15.2701 21.0547 17.6167 21.3995 22.2482H2.60156Z" fill="#2DA0A6"/>
<path d="M12.0002 0C8.68773 0 6.18994 2.54803 6.18994 5.92673C6.18994 9.40439 8.79638 12.2333 12.0002 12.2333C15.2039 12.2333 17.8104 9.40439 17.8104 5.92702C17.8104 2.54803 15.3126 0 12.0002 0ZM12.0002 10.4818C9.7622 10.4818 7.94176 8.43853 7.94176 5.92702C7.94176 3.50775 9.64862 1.75181 12.0002 1.75181C14.3141 1.75181 16.0586 3.54656 16.0586 5.92702C16.0586 8.43853 14.2381 10.4818 12.0002 10.4818Z" fill="#2DA0A6"/>
</g>
<defs>
<clipPath id="clip0_511_2614">
<rect width="24" height="24" fill="white"/>
</clipPath>
</defs>
</svg>
