<svg width="16" height="65" viewBox="0 0 16 65" fill="none" xmlns="http://www.w3.org/2000/svg">
<path d="M7.64645 64.3536C7.84171 64.5488 8.15829 64.5488 8.35356 64.3536L11.5355 61.1716C11.7308 60.9763 11.7308 60.6597 11.5355 60.4645C11.3403 60.2692 11.0237 60.2692 10.8284 60.4645L8 63.2929L5.17158 60.4645C4.97631 60.2692 4.65973 60.2692 4.46447 60.4645C4.26921 60.6597 4.26921 60.9763 4.46447 61.1716L7.64645 64.3536ZM7.5 1C7.5 1.27614 7.72386 1.5 8 1.5C8.27614 1.5 8.5 1.27614 8.5 1L7.5 1ZM8.5 7C8.5 6.72386 8.27614 6.5 8 6.5C7.72386 6.5 7.5 6.72386 7.5 7L8.5 7ZM7.5 9C7.5 9.27614 7.72386 9.5 8 9.5C8.27614 9.5 8.5 9.27614 8.5 9L7.5 9ZM8.5 15C8.5 14.7239 8.27614 14.5 8 14.5C7.72386 14.5 7.5 14.7239 7.5 15L8.5 15ZM7.5 17C7.5 17.2761 7.72386 17.5 8 17.5C8.27614 17.5 8.5 17.2761 8.5 17L7.5 17ZM8.5 23C8.5 22.7239 8.27614 22.5 8 22.5C7.72386 22.5 7.5 22.7239 7.5 23L8.5 23ZM7.5 25C7.5 25.2761 7.72386 25.5 8 25.5C8.27614 25.5 8.5 25.2761 8.5 25L7.5 25ZM8.5 31C8.5 30.7239 8.27614 30.5 8 30.5C7.72386 30.5 7.5 30.7239 7.5 31L8.5 31ZM7.5 33C7.5 33.2761 7.72386 33.5 8 33.5C8.27614 33.5 8.5 33.2761 8.5 33L7.5 33ZM8.5 39C8.5 38.7239 8.27614 38.5 8 38.5C7.72386 38.5 7.5 38.7239 7.5 39L8.5 39ZM7.5 41C7.5 41.2761 7.72386 41.5 8 41.5C8.27614 41.5 8.5 41.2761 8.5 41L7.5 41ZM8.5 47C8.5 46.7239 8.27614 46.5 8 46.5C7.72386 46.5 7.5 46.7239 7.5 47L8.5 47ZM7.5 49C7.5 49.2761 7.72386 49.5 8 49.5C8.27614 49.5 8.5 49.2761 8.5 49L7.5 49ZM8.5 55C8.5 54.7239 8.27614 54.5 8 54.5C7.72386 54.5 7.5 54.7239 7.5 55L8.5 55ZM7.5 57C7.5 57.2761 7.72386 57.5 8 57.5C8.27614 57.5 8.5 57.2761 8.5 57L7.5 57ZM8.5 63C8.5 62.7239 8.27615 62.5 8 62.5C7.72386 62.5 7.5 62.7239 7.5 63L8.5 63ZM7.5 2.18557e-08L7.5 1L8.5 1L8.5 -2.18557e-08L7.5 2.18557e-08ZM7.5 7L7.5 9L8.5 9L8.5 7L7.5 7ZM7.5 15L7.5 17L8.5 17L8.5 15L7.5 15ZM7.5 23L7.5 25L8.5 25L8.5 23L7.5 23ZM7.5 31L7.5 33L8.5 33L8.5 31L7.5 31ZM7.5 39L7.5 41L8.5 41L8.5 39L7.5 39ZM7.5 47L7.5 49L8.5 49L8.5 47L7.5 47ZM7.5 55L7.5 57L8.5 57L8.5 55L7.5 55ZM7.5 63L7.5 64L8.5 64L8.5 63L7.5 63ZM7.2929 64.7071C7.68342 65.0976 8.31659 65.0976 8.70711 64.7071L15.0711 58.3431C15.4616 57.9526 15.4616 57.3195 15.0711 56.9289C14.6805 56.5384 14.0474 56.5384 13.6569 56.9289L8 62.5858L2.34315 56.9289C1.95262 56.5384 1.31946 56.5384 0.928935 56.9289C0.53841 57.3195 0.53841 57.9526 0.928935 58.3431L7.2929 64.7071ZM7 1C7 1.55228 7.44772 2 8 2C8.55228 2 9 1.55228 9 1L7 1ZM9 7C9 6.44772 8.55229 6 8 6C7.44772 6 7 6.44772 7 7L9 7ZM7 9C7 9.55229 7.44772 10 8 10C8.55229 10 9 9.55229 9 9L7 9ZM9 15C9 14.4477 8.55229 14 8 14C7.44772 14 7 14.4477 7 15L9 15ZM7 17C7 17.5523 7.44772 18 8 18C8.55229 18 9 17.5523 9 17L7 17ZM9 23C9 22.4477 8.55229 22 8 22C7.44772 22 7 22.4477 7 23L9 23ZM7 25C7 25.5523 7.44772 26 8 26C8.55229 26 9 25.5523 9 25L7 25ZM9 31C9 30.4477 8.55229 30 8 30C7.44772 30 7 30.4477 7 31L9 31ZM7 33C7 33.5523 7.44772 34 8 34C8.55229 34 9 33.5523 9 33L7 33ZM9 39C9 38.4477 8.55229 38 8 38C7.44772 38 7 38.4477 7 39L9 39ZM7 41C7 41.5523 7.44772 42 8 42C8.55229 42 9 41.5523 9 41L7 41ZM9 47C9 46.4477 8.55229 46 8 46C7.44772 46 7 46.4477 7 47L9 47ZM7 49C7 49.5523 7.44772 50 8 50C8.55229 50 9 49.5523 9 49L7 49ZM9 55C9 54.4477 8.55229 54 8 54C7.44772 54 7 54.4477 7 55L9 55ZM7 57C7 57.5523 7.44772 58 8 58C8.55229 58 9 57.5523 9 57L7 57ZM9 63C9 62.4477 8.55229 62 8 62C7.44772 62 7 62.4477 7 63L9 63ZM7 4.37114e-08L7 1L9 1L9 -4.37114e-08L7 4.37114e-08ZM7 7L7 9L9 9L9 7L7 7ZM7 15L7 17L9 17L9 15L7 15ZM7 23L7 25L9 25L9 23L7 23ZM7 31L7 33L9 33L9 31L7 31ZM7 39L7 41L9 41L9 39L7 39ZM7 47L7 49L9 49L9 47L7 47ZM7 55L7 57L9 57L9 55L7 55ZM7 63L7 64L9 64L9 63L7 63Z" fill="#2DA0A6"/>
</svg>
