<svg width="88" height="92" viewBox="0 0 88 92" fill="none" xmlns="http://www.w3.org/2000/svg">
<path d="M4.00208 70.6549C9.94612 88.1296 21.0442 94.6318 37.2962 90.1615C53.5482 85.6913 67.5431 76.9539 79.2807 63.9496C91.0182 50.9452 90.9054 38.1846 78.9421 25.6679C66.9788 13.1511 53.6611 5.67362 38.9891 3.2353C24.3171 0.796973 13.332 7.05534 6.03359 22.0104C-1.26478 36.9654 -1.94195 53.1803 4.00208 70.6549Z" fill="#EFF3F6"/>
<path d="M85.4604 17.1201C83.528 20.394 80.6338 22.3104 76.6838 22.8897C74.7478 23.1737 73.0747 22.9056 71.6192 22.1322C70.1545 21.3539 68.8332 20.0226 67.6823 18.0552C66.5387 16.1004 65.9945 14.1936 66 12.3221C66.0056 10.4508 66.561 8.55042 67.7156 6.60865C70.0115 2.74759 73.1637 0.931111 77.2549 1.00199C79.3426 1.03817 81.0582 1.53591 82.4483 2.44914C83.838 3.36209 84.968 4.73338 85.8154 6.6232C87.5176 10.4191 87.3734 13.8792 85.4604 17.1201Z" stroke="#BF573F" stroke-width="2"/>
<path d="M86.2729 84.2898C85.3494 85.7891 83.9714 86.6768 82.0324 86.9493C81.1008 87.0802 80.3249 86.9538 79.6625 86.6165C78.9936 86.2759 78.3661 85.6821 77.8027 84.7591C77.2459 83.8471 76.9975 82.9861 77 82.1627C77.0026 81.3394 77.2563 80.4815 77.8181 79.576C78.9269 77.789 80.4176 76.9682 82.3863 77.0009C83.4099 77.0179 84.2185 77.2509 84.8571 77.6529C85.4933 78.0534 86.0236 78.6612 86.4305 79.5308C87.2516 81.2856 87.1726 82.829 86.2729 84.2898Z" stroke="#BF573F" stroke-width="2"/>
<g clip-path="url(#clip0_3898_7)">
<path d="M3.35222 24.3559C11.6598 29.139 20.6839 32.4577 30.176 34.2194C34.8399 35.0851 39.5326 35.5594 44.2228 35.6435C47.3521 34.5657 50.4099 33.2608 53.3686 31.7312C56.4438 30.1392 60.0152 30.3017 62.8908 31.9822C65.7982 27.6079 62.118 21.7617 56.8617 22.5892C52.9751 23.1979 48.9738 23.4857 45.2579 23.4537L44.4022 28.0674C44.2136 29.0834 43.2377 29.7626 42.2077 29.5743C41.1863 29.3849 40.5113 28.4024 40.7007 27.3798L41.4511 23.3308C39.0395 23.1902 36.6366 22.928 34.2539 22.5491L33.4571 26.8478C33.2688 27.8626 32.2956 28.5447 31.2626 28.356C30.2412 28.1653 29.5662 27.1841 29.7557 26.1615L30.5537 21.8615C28.2562 21.3746 25.9827 20.7761 23.7417 20.0672L22.9939 24.0924C22.8038 25.1181 21.8198 25.7888 20.8006 25.6006C19.778 25.4111 19.1029 24.4287 19.2937 23.4061L20.1431 18.8275C16.4554 17.4473 12.8719 15.7635 9.43644 13.7847C6.51667 12.1039 2.7911 13.106 1.10875 16.027C-0.568832 18.9417 0.437467 22.6783 3.35222 24.3559Z" fill="#BF573F"/>
<path d="M3.24025 50.3816C5.75851 49.6062 8.42734 49.8584 10.7561 51.0906C13.9482 52.7794 17.2594 54.2048 20.6535 55.3629C34.1205 55.5296 47.9794 52.4862 60.7009 45.9098C63.7072 44.3531 64.8596 40.6729 63.3158 37.6912C61.9278 34.9912 58.5075 33.37 54.9618 35.1441C51.4587 36.9465 47.6824 38.5039 44.3618 39.5658L45.0092 44.2134C45.1669 45.338 44.2951 46.3552 43.1434 46.3552C42.2187 46.3552 41.4131 45.6739 41.2814 44.7328L40.713 40.6524C38.3804 41.2823 36.0178 41.7942 33.6375 42.1895L34.241 46.5196C34.3853 47.5484 33.6664 48.4995 32.6375 48.6438C31.5604 48.7821 30.6525 48.0342 30.5132 47.039L29.9097 42.7077C27.5759 42.9724 25.2295 43.1242 22.8794 43.1619L23.444 47.2159C23.6014 48.3379 22.7326 49.3578 21.5782 49.3578C20.6535 49.3578 19.848 48.6765 19.7162 47.7354L19.0738 43.123C15.1389 42.9799 11.2091 42.5157 7.32317 41.7265C1.85138 40.6184 -2.06327 46.8196 1.17496 51.2825C1.81864 50.9099 2.51 50.6062 3.24025 50.3816Z" fill="#BF573F"/>
<path d="M56.7057 61.52C52.88 62.2603 49.0091 62.6844 45.1395 62.7998L44.4494 67.4398C44.2958 68.4711 43.3352 69.1766 42.3113 69.0245C41.2824 68.8715 40.5735 67.9141 40.7266 66.8865L41.3326 62.8123C38.9173 62.7571 36.5069 62.5827 34.1116 62.2891L33.4679 66.6129C33.3165 67.6296 32.3736 68.3505 31.3299 68.1977C30.301 68.0446 29.5921 67.0872 29.7451 66.0596L30.3876 61.7345C28.0751 61.3292 25.7814 60.811 23.5154 60.1837L22.9131 64.234C22.7618 65.2577 21.8082 65.97 20.775 65.8187C19.7474 65.6656 19.0372 64.7082 19.1903 63.6794L19.8691 59.1146L19.8754 59.0732C16.1432 57.8266 12.4934 56.2661 8.9968 54.4169C8.98802 54.4119 8.97924 54.4081 8.97045 54.4043C5.99836 52.8445 2.32097 53.9888 0.754435 56.9565C-0.819006 59.9289 0.320296 63.6267 3.29402 65.1988C19.8597 73.9649 39.5908 77.2549 59.0244 73.4952C62.3378 72.8554 64.4927 69.6532 63.8527 66.3494C63.2126 63.0453 60.023 60.8773 56.7057 61.52Z" fill="#BF573F"/>
</g>
<defs>
<clipPath id="clip0_3898_7">
<rect width="64" height="64" fill="white" transform="translate(0 12)"/>
</clipPath>
</defs>
</svg>
