<svg width="128" height="118" viewBox="0 0 128 118" fill="none" xmlns="http://www.w3.org/2000/svg">
<path d="M110.803 17.1975C99.715 6.10998 84.9668 0 69.2968 0C53.3372 0 38.4046 6.29433 27.2644 17.7242C26.053 18.962 26.0793 20.9635 27.3171 22.2013C28.5549 23.4128 30.5565 23.3865 31.7942 22.1487C41.7493 11.9566 55.049 6.347 69.2968 6.347C98.1875 6.32066 121.679 29.8125 121.679 58.7032C121.679 87.5938 98.1875 111.086 69.2968 111.086C40.4062 111.086 16.9144 87.5938 16.9144 58.7032V58.0448L22.1289 63.2593C22.7346 63.865 23.5511 64.1811 24.3675 64.1811C25.1839 64.1811 25.974 63.865 26.606 63.2593C27.8438 62.0215 27.8438 60.02 26.606 58.7822L16.0189 48.1687C14.7811 46.9309 12.7796 46.9309 11.5418 48.1687L0.928347 58.7822C-0.309449 60.02 -0.309449 62.0215 0.928347 63.2593C2.16614 64.4971 4.16769 64.4971 5.40548 63.2593L10.62 58.0448V58.7032C10.62 74.3731 16.73 89.1213 27.8175 100.209C38.905 111.296 53.6532 117.406 69.3232 117.406C84.9932 117.406 99.7414 111.296 110.829 100.209C121.916 89.1213 128 74.3731 128 58.7032C128 43.0332 121.89 28.285 110.803 17.1975Z" fill="white"/>
<path d="M86.0992 37.3458L47.2799 76.1389C46.0421 77.3767 46.0421 79.3783 47.2799 80.6161C47.8856 81.2218 48.7021 81.5378 49.5185 81.5378C50.3349 81.5378 51.125 81.2218 51.757 80.6161L90.5763 41.7967C91.8141 40.5589 91.8141 38.5573 90.5763 37.3195C89.3385 36.1081 87.337 36.1081 86.0992 37.3458Z" fill="white"/>
<path d="M75.9353 63.4707C71.5372 67.8688 71.5372 75.0586 75.9353 79.4567C78.0686 81.59 80.9129 82.7751 83.9415 82.7751C86.9702 82.7751 89.8145 81.59 91.9478 79.4567C96.3459 75.0586 96.3459 67.8688 91.9478 63.4707C89.8145 61.3374 86.9702 60.1523 83.9415 60.1523C80.9129 60.1523 78.0949 61.3374 75.9353 63.4707ZM87.4706 75.0059C86.5225 75.954 85.2847 76.4544 83.9415 76.4544C82.5984 76.4544 81.3606 75.9277 80.4125 75.0059C78.4636 73.057 78.4636 69.8967 80.4125 67.9478C81.3606 66.9997 82.5984 66.4993 83.9415 66.4993C85.2847 66.4993 86.5225 67.026 87.4706 67.9478C89.4195 69.8967 89.4195 73.057 87.4706 75.0059Z" fill="white"/>
<path d="M54.762 34.5266C51.7334 34.5266 48.8891 35.7117 46.7558 37.8449C44.6226 39.9781 43.4375 42.8224 43.4375 45.8511C43.4375 48.8797 44.6226 51.724 46.7558 53.8572C48.8891 55.9905 51.7334 57.1756 54.762 57.1756C57.7907 57.1756 60.635 55.9905 62.7682 53.8572C64.9014 51.724 66.0865 48.8797 66.0865 45.8511C66.0865 42.8224 64.9014 39.9781 62.7682 37.8449C60.6086 35.7117 57.7907 34.5266 54.762 34.5266ZM58.2911 49.3801C57.343 50.3282 56.1052 50.8286 54.762 50.8286C53.4189 50.8286 52.1811 50.3019 51.233 49.3801C50.2849 48.432 49.7845 47.1942 49.7845 45.8511C49.7845 44.5079 50.3112 43.2701 51.233 42.322C52.1811 41.3739 53.4189 40.8736 54.762 40.8736C56.1052 40.8736 57.343 41.4003 58.2911 42.322C59.2392 43.2701 59.7395 44.5079 59.7395 45.8511C59.7395 47.1679 59.2392 48.432 58.2911 49.3801Z" fill="white"/>
</svg>
