<svg width="88" height="88" viewBox="0 0 88 88" fill="none" xmlns="http://www.w3.org/2000/svg">
<g clip-path="url(#clip0_2897_1291)">
<path d="M87.9955 43.9991C87.9955 68.2995 68.299 88 43.9964 88C19.6993 88 0 68.2981 0 43.9991C0 19.7001 19.6993 0 43.9969 0C68.2993 0 87.9955 19.6984 87.9955 43.9991Z" fill="#BF573F"/>
<path d="M82.0963 43.9991C82.0963 65.0399 65.0384 82.1001 43.9963 82.1001C22.9577 82.1001 5.89844 65.0399 5.89844 43.9991C5.89844 22.9584 22.9569 5.90442 43.9968 5.90442C65.0375 5.90442 82.0963 22.9579 82.0963 43.9991Z" fill="white"/>
<path fill-rule="evenodd" clip-rule="evenodd" d="M43.9964 88C68.299 88 87.9955 68.2995 87.9955 43.9991C87.9955 19.6984 68.2993 0 43.9969 0C19.6993 0 0 19.7001 0 43.9991C0 68.2981 19.6993 88 43.9964 88ZM43.9963 82.1001C65.0384 82.1001 82.0963 65.0399 82.0963 43.9991C82.0963 22.9579 65.0375 5.90442 43.9968 5.90442C22.9569 5.90442 5.89844 22.9584 5.89844 43.9991C5.89844 65.0399 22.9577 82.1001 43.9963 82.1001Z" fill="#BF573F"/>
<path d="M45.0706 15.9386V10.7598C45.0706 10.1708 44.5931 9.69324 44.0041 9.69324C43.415 9.69324 42.9375 10.1708 42.9375 10.7598V15.9386C42.9375 16.5276 43.415 17.0051 44.0041 17.0051C44.5931 17.0051 45.0706 16.5276 45.0706 15.9386Z" fill="#BF573F"/>
<path d="M15.9386 42.9352H10.7514C10.1638 42.9352 9.6875 43.4116 9.6875 43.9991C9.6875 44.5867 10.1638 45.063 10.7514 45.063H15.9386C16.5262 45.063 17.0025 44.5867 17.0025 43.9991C17.0025 43.4116 16.5262 42.9352 15.9386 42.9352Z" fill="#BF573F"/>
<path d="M45.0706 77.2455V72.0606C45.0706 71.4715 44.5931 70.994 44.0041 70.994C43.415 70.994 42.9375 71.4715 42.9375 72.0606V77.2455C42.9375 77.8346 43.415 78.3121 44.0041 78.3121C44.5931 78.3121 45.0706 77.8346 45.0706 77.2455Z" fill="#BF573F"/>
<path d="M77.2464 42.9352H72.0561C71.4685 42.9352 70.9922 43.4116 70.9922 43.9991C70.9922 44.5867 71.4685 45.063 72.0561 45.063H77.2464C77.834 45.063 78.3103 44.5867 78.3103 43.9991C78.3103 43.4116 77.834 42.9352 77.2464 42.9352Z" fill="#BF573F"/>
<path fill-rule="evenodd" clip-rule="evenodd" d="M10.0952 25.2571L42.8871 44.9322L43.3164 82.6686C36.6401 82.7344 30.0436 81.0431 24.2285 77.7809L24.2203 77.7955C14.708 72.4278 7.73152 63.0946 5.54414 52.0374C4.6914 47.7648 4.59371 43.4236 5.20069 39.1996C5.68556 35.7879 6.62238 32.5224 7.94864 29.4653C8.24985 28.7676 8.5721 28.0782 8.91512 27.3983L8.91938 27.4004C9.2889 26.6722 9.68116 25.9574 10.0952 25.2571Z" fill="#BF573F" fill-opacity="0.2"/>
</g>
<defs>
<clipPath id="clip0_2897_1291">
<rect width="88" height="88" fill="white"/>
</clipPath>
</defs>
</svg>
