<svg width="32" height="32" viewBox="0 0 32 32" fill="none" xmlns="http://www.w3.org/2000/svg">
<path d="M15.6328 26.1818C22.2602 26.1818 27.6328 20.8092 27.6328 14.1818C27.6328 7.55441 22.2602 2.18182 15.6328 2.18182C9.0054 2.18182 3.63281 7.55441 3.63281 14.1818C3.63281 20.8092 9.0054 26.1818 15.6328 26.1818Z" fill="white"/>
<path d="M15.9932 22.6067C20.6968 22.6067 24.5098 18.7937 24.5098 14.09C24.5098 9.38644 20.6968 5.57341 15.9932 5.57341C11.2896 5.57341 7.47656 9.38644 7.47656 14.09C7.47656 18.7937 11.2896 22.6067 15.9932 22.6067Z" fill="#D98F4E"/>
<path d="M26.0038 4.14516C23.3308 1.47213 19.7767 0 15.9964 0C12.2161 0 8.662 1.47213 5.98897 4.14516C3.31588 6.81832 1.84375 10.3723 1.84375 14.1526C1.84375 20.8219 6.50623 26.5796 12.9834 27.9827L15.9964 32L19.0094 27.9827C25.4865 26.5795 30.149 20.8219 30.149 14.1526C30.149 10.3723 28.6769 6.81832 26.0038 4.14516ZM15.9964 3.69472C21.7284 3.69472 26.3917 8.35807 26.3917 14.09C26.3917 19.822 21.7284 24.4853 15.9964 24.4853C10.2644 24.4853 5.60109 19.822 5.60109 14.09C5.60109 8.35807 10.2644 3.69472 15.9964 3.69472Z" fill="#D98F4E"/>
</svg>
